:FULLY-SPECIFIED
:FORCE-ALL-JOINTS-BE-3DOF
:DEGREES
33
root 8.11033 15.7404 -31.9774 7.85409 -7.24686 -6.6013
lfemur -45.1637 8.99265 -12.5744
ltibia 37.724 0 0
lfoot -0.692534 7.1395 0
ltoes -5.39189 0 0
rfemur 21.3355 6.16082 28.6098
rtibia 0.0321924 0 0
rfoot -1.10983 1.69791 0
rtoes -24.9276 0 0
lowerback -8.17067 1.21991 2.72432
upperback -1.24851 1.23625 3.88688
thorax 3.24607 0.622246 2.63709
lowerneck -20.6729 -4.81802 -12.6902
upperneck 15.2088 -5.93861 15.2707
head 9.05091 -1.97937 6.60784
lclavicle -2.56902e-14 -4.12721e-14 0
lhumerus -43.9535 -5.9104 91.1787
lradius 23.6421 0 0
lwrist 0.92493 0 0
lhand 4.40039 -18.0045 0
lfingers 7.12502 0 0
lthumb 29.7831 9.46552 0
rclavicle -2.56902e-14 -4.12721e-14 0
rhumerus -44.7341 19.8317 -92.5188
rradius 57.1949 0 0
rwrist -27.4529 0 0
rhand -31.2628 -33.794 0
rfingers 7.12502 0 0
rthumb -4.53689 -63.7236 0
34
root 8.13047 15.7325 -31.8289 7.85545 -7.48901 -6.63662
lfemur -45.135 9.03231 -12.5446
ltibia 37.496 0 0
lfoot -0.376908 7.11663 0
ltoes -5.18701 0 0
rfemur 21.9812 6.17516 28.5134
rtibia -0.327495 0 0
rfoot -1.22395 1.67152 0
rtoes -25.5563 0 0
lowerback -8.26335 1.2363 2.74013
upperback -1.24222 1.25182 3.91745
thorax 3.30426 0.629993 2.66302
lowerneck -20.7384 -4.80365 -12.6667
upperneck 15.2754 -5.912 15.2069
head 9.07752 -1.96871 6.58665
lclavicle -2.65625e-14 -4.26509e-14 0
lhumerus -44.0904 -6.02982 91.2964
lradius 23.553 0 0
lwrist 0.75056 0 0
lhand 4.82357 -17.8891 0
lfingers 7.12502 0 0
lthumb 30.1891 9.53115 0
rclavicle -2.65625e-14 -4.26509e-14 0
rhumerus -44.8974 19.8671 -92.7375
rradius 57.1338 0 0
rwrist -27.3918 0 0
rhand -31.2053 -33.9654 0
rfingers 7.12502 0 0
rthumb -4.48132 -63.8964 0
35
root 8.15061 15.7246 -31.6803 7.85312 -7.71883 -6.66132
lfemur -45.0791 9.06382 -12.5306
ltibia 37.2698 0 0
lfoot -0.0918503 7.09702 0
ltoes -4.98843 0 0
rfemur 22.55 6.18391 28.4119
rtibia -0.609288 0 0
rfoot -1.34759 1.63268 0
rtoes -26.1389 0 0
lowerback -8.34819 1.24949 2.74871
upperback -1.2365 1.26398 3.94516
thorax 3.35769 0.636024 2.68966
lowerneck -20.8021 -4.78921 -12.6435
upperneck 15.343 -5.88543 15.1432
head 9.10425 -1.95821 6.56556
lclavicle -2.73843e-14 -4.39154e-14 0
lhumerus -44.2037 -6.14992 91.404
lradius 23.4715 0 0
lwrist 0.586198 0 0
lhand 5.21086 -17.7845 0
lfingers 7.12502 0 0
lthumb 30.5607 9.5904 0
rclavicle -2.73843e-14 -4.39154e-14 0
rhumerus -45.0515 19.8948 -92.9415
rradius 57.0593 0 0
rwrist -27.3282 0 0
rhand -31.1501 -34.1177 0
rfingers 7.12502 0 0
rthumb -4.42809 -64.0501 0
36
root 8.17074 15.7167 -31.5317 7.84688 -7.93536 -6.67475
lfemur -44.9943 9.0867 -12.5333
ltibia 37.0457 0 0
lfoot 0.16058 7.08087 0
ltoes -4.79673 0 0
rfemur 23.0368 6.18674 28.3051
rtibia -0.808415 0 0
rfoot -1.48116 1.58073 0
rtoes -26.6721 0 0
lowerback -8.42466 1.25929 2.74964
upperback -1.23139 1.27251 3.96982
thorax 3.40602 0.640233 2.71703
lowerneck -20.8638 -4.77473 -12.6205
upperneck 15.4114 -5.85895 15.0797
head 9.13107 -1.94788 6.5446
lclavicle -2.81516e-14 -4.50577e-14 0
lhumerus -44.2918 -6.27061 91.501
lradius 23.3984 0 0
lwrist 0.432594 0 0
lhand 5.55978 -17.6914 0
lfingers 7.12502 0 0
lthumb 30.8955 9.64284 0
rclavicle -2.81516e-14 -4.50577e-14 0
rhumerus -45.1955 19.9144 -93.1296
rradius 56.9706 0 0
rwrist -27.2623 0 0
rhand -31.0976 -34.2497 0
rfingers 7.12502 0 0
rthumb -4.3774 -64.1833 0
37
root 8.19088 15.7088 -31.3831 7.83653 -8.13766 -6.67628
lfemur -44.8793 9.10044 -12.5536
ltibia 36.8241 0 0
lfoot 0.378326 7.06838 0
ltoes -4.61249 0 0
rfemur 23.4367 6.18332 28.1929
rtibia -0.920105 0 0
rfoot -1.62508 1.515 0
rtoes -27.1526 0 0
lowerback -8.49222 1.2655 2.7425
upperback -1.22693 1.27721 3.99122
thorax 3.44892 0.642516 2.74512
lowerneck -20.9235 -4.7602 -12.5978
upperneck 15.4808 -5.83258 15.0164
head 9.15795 -1.93774 6.5238
lclavicle -2.88608e-14 -4.60698e-14 0
lhumerus -44.3533 -6.39181 91.5867
lradius 23.3341 0 0
lwrist 0.290496 0 0
lhand 5.86785 -17.6106 0
lfingers 7.12502 0 0
lthumb 31.1911 9.68805 0
rclavicle -2.88608e-14 -4.60698e-14 0
rhumerus -45.3289 19.9253 -93.301
rradius 56.8671 0 0
rwrist -27.1938 0 0
rhand -31.0479 -34.36 0
rfingers 7.12502 0 0
rthumb -4.32943 -64.2948 0
38
root 8.21102 15.7009 -31.2345 7.82185 -8.32477 -6.66527
lfemur -44.7324 9.10454 -12.5925
ltibia 36.6054 0 0
lfoot 0.55933 7.05977 0
ltoes -4.43628 0 0
rfemur 23.7447 6.17333 28.0751
rtibia -0.939586 0 0
rfoot -1.77976 1.4348 0
rtoes -27.5772 0 0
lowerback -8.55032 1.26791 2.72685
upperback -1.22316 1.27787 4.00919
thorax 3.48608 0.642768 2.77396
lowerneck -20.9809 -4.74564 -12.5755
upperneck 15.551 -5.80636 14.9534
head 9.18488 -1.92782 6.50318
lclavicle -2.9508e-14 -4.69438e-14 0
lhumerus -44.3867 -6.51341 91.6602
lradius 23.2791 0 0
lwrist 0.160655 0 0
lhand 6.13261 -17.5427 0
lfingers 7.12502 0 0
lthumb 31.4452 9.7256 0
rclavicle -2.9508e-14 -4.69438e-14 0
rhumerus -45.4508 19.9271 -93.4544
rradius 56.7481 0 0
rwrist -27.1228 0 0
rhand -31.0013 -34.4475 0
rfingers 7.12502 0 0
rthumb -4.28438 -64.3834 0
39
root 8.23116 15.6929 -31.0859 7.80264 -8.49574 -6.64109
lfemur -44.5522 9.09849 -12.6508
ltibia 36.3897 0 0
lfoot 0.701533 7.05525 0
ltoes -4.26866 0 0
rfemur 23.9556 6.15642 27.9514
rtibia -0.862087 0 0
rfoot -1.94561 1.33947 0
rtoes -27.9425 0 0
lowerback -8.59843 1.26634 2.70227
upperback -1.22012 1.27428 4.02352
thorax 3.51715 0.640883 2.80355
lowerneck -21.0359 -4.73107 -12.5536
upperneck 15.6221 -5.78032 14.8908
head 9.21184 -1.91813 6.48277
lclavicle -3.00895e-14 -4.76719e-14 0
lhumerus -44.3906 -6.63535 91.721
lradius 23.234 0 0
lwrist 0.0438194 0 0
lhand 6.35158 -17.4885 0
lfingers 7.12502 0 0
lthumb 31.6554 9.75505 0
rclavicle -3.00895e-14 -4.76719e-14 0
rhumerus -45.5606 19.9194 -93.5889
rradius 56.6129 0 0
rwrist -27.0492 0 0
rhand -30.9578 -34.5108 0
rfingers 7.12502 0 0
rthumb -4.24244 -64.4477 0
40
root 8.25129 15.685 -30.9374 7.77868 -8.64962 -6.60311
lfemur -44.3372 9.0818 -12.7296
ltibia 36.1776 0 0
lfoot 0.802878 7.05501 0
ltoes -4.11022 0 0
rfemur 24.0645 6.13227 27.8217
rtibia -0.682837 0 0
rfoot -2.12306 1.22833 0
rtoes -28.2454 0 0
lowerback -8.636 1.26058 2.66835
upperback -1.21784 1.26622 4.03402
thorax 3.5418 0.636757 2.83391
lowerneck -21.0882 -4.71649 -12.5321
upperneck 15.6941 -5.75449 14.8286
head 9.2388 -1.90869 6.4626
lclavicle -3.06015e-14 -4.8246e-14 0
lhumerus -44.3633 -6.75752 91.7684
lradius 23.1992 0 0
lwrist -0.0592615 0 0
lhand 6.52229 -17.4488 0
lfingers 7.12502 0 0
lthumb 31.8192 9.77599 0
rclavicle -3.06015e-14 -4.8246e-14 0
rhumerus -45.6576 19.9016 -93.7033
rradius 56.4608 0 0
rwrist -26.9728 0 0
rhand -30.9178 -34.5487 0
rfingers 7.12502 0 0
rthumb -4.20379 -64.4865 0
41
root 8.27143 15.6771 -30.7888 7.74976 -8.78545 -6.55068
lfemur -44.0858 9.05397 -12.8296
ltibia 35.9694 0 0
lfoot 0.861306 7.05928 0
ltoes -3.96153 0 0
rfemur 24.0664 6.10056 27.6858
rtibia -0.397065 0 0
rfoot -2.31251 1.10071 0
rtoes -28.4824 0 0
lowerback -8.66249 1.25044 2.62465
upperback -1.21637 1.2535 4.04049
thorax 3.55971 0.630285 2.86506
lowerneck -21.1378 -4.70191 -12.511
upperneck 15.7668 -5.72889 14.767
head 9.26573 -1.89953 6.44271
lclavicle -3.10402e-14 -4.86584e-14 0
lhumerus -44.3036 -6.87985 91.8017
lradius 23.1754 0 0
lwrist -0.147838 0 0
lhand 6.64227 -17.4243 0
lfingers 7.12502 0 0
lthumb 31.9345 9.78797 0
rclavicle -3.10402e-14 -4.86584e-14 0
rhumerus -45.7412 19.8732 -93.7967
rradius 56.2911 0 0
rwrist -26.8937 0 0
rhand -30.8814 -34.5599 0
rfingers 7.12502 0 0
rthumb -4.16864 -64.4986 0
